<svg width="162" height="24" viewBox="0 0 162 24" fill="none" xmlns="http://www.w3.org/2000/svg">
<path d="M115.256 17.8001H116.519C118.194 16.1721 118.964 12.8601 119.02 7.54614H127.784V17.8001H129.79V23.9941H127.099V20.6301H117.95V23.9941H115.256V17.8001ZM119.431 17.8001H124.981V10.3501H121.3C121.217 13.5021 120.695 15.9321 119.431 17.8001Z" fill="#F0B900"/>
<path d="M144.295 14.062C144.295 17.934 141.685 20.898 137.619 20.898C133.553 20.898 130.943 17.934 130.943 14.062C130.943 10.218 133.553 7.28003 137.619 7.28003C141.685 7.28003 144.295 10.218 144.295 14.062ZM133.746 14.062C133.746 16.412 135.285 17.96 137.619 17.96C139.955 17.96 141.492 16.412 141.492 14.062C141.492 11.74 139.953 10.218 137.619 10.218C135.283 10.218 133.746 11.74 133.746 14.062Z" fill="#F0B900"/>
<path d="M146.85 20.6301V7.54614H150.587L154.268 14.5421L157.95 7.54614H161.549V20.6301H158.775V11.2841L154.764 18.7061H153.583L149.572 11.2841V20.6301H146.85Z" fill="#F0B900"/>
<path d="M89.9282 6.46582C92.0745 6.46582 93.6014 5.36982 93.8936 2.96582H91.7843C91.5662 3.81382 91.0559 4.23782 89.9282 4.23782C88.8005 4.23782 88.2181 3.81382 88.037 2.96582H85.9277C86.2179 5.36982 87.7818 6.46582 89.9282 6.46582Z" fill="black"/>
<path d="M46.6235 16.246V7.56201H43.9668V20.22H46.7325L52.0788 11.39V20.22H54.7334V7.56201H51.9697L46.6235 16.246Z" fill="black"/>
<path d="M35.6105 7.66798C33.5074 7.66798 31.713 8.61998 30.7849 10.388C30.9166 7.51998 31.5031 5.81398 34.9191 5.36998L40.2304 4.66198L40.0122 1.83398L34.4829 2.57599C29.7169 3.21198 28.3711 6.78398 28.3711 12.404C28.3711 17.318 30.6635 20.464 34.9191 20.464C39.0656 20.464 41.321 17.352 41.321 13.712C41.321 10.072 38.8125 7.66798 35.6105 7.66798ZM34.9191 17.674C32.5176 17.674 31.0998 15.978 31.0998 13.432V12.124C31.6081 11.134 32.9559 10.356 34.9191 10.356C36.9934 10.356 38.5923 11.31 38.5923 13.714C38.5923 16.118 37.3206 17.674 34.9191 17.674Z" fill="black"/>
<path d="M106.507 7.56201V12.3H101.34V7.56201H98.6855V20.22H101.34V14.916H106.507V20.22H109.162V7.56201H106.507Z" fill="black"/>
<path d="M87.2368 16.246V7.56201H84.5801V20.22H87.3458L92.6921 11.39V20.22H95.3487V7.56201H92.583L87.2368 16.246Z" fill="black"/>
<path d="M59.5126 15.3059C59.2224 16.7199 58.8211 17.3219 58.0207 17.3219C57.5844 17.3219 57.2572 17.2859 57.0391 17.2159V20.1499C57.3663 20.2919 57.6585 20.3979 58.3478 20.3979C59.7307 20.3979 60.7123 19.6199 61.1856 18.4179C61.4757 17.6759 61.6589 16.6499 61.805 15.3419C61.9511 14.0339 62.0602 12.3019 62.0602 10.2519H65.5894V20.2219H68.244V7.56592H59.8418C59.8398 11.3799 59.7307 13.8899 59.5126 15.3059Z" fill="black"/>
<path d="M80.7714 16.79L80.8084 11.77C80.8455 8.58803 78.8432 7.28003 75.9334 7.28003C73.5319 7.28003 71.3506 8.55203 71.0234 11.522H73.569C73.7151 10.356 74.6596 9.96603 75.9334 9.96603C77.2381 9.96603 78.1127 10.356 78.2444 11.658L74.9889 12.936C72.7705 13.82 71.0975 14.81 71.0975 16.896C71.0975 19.052 72.3343 20.432 74.8078 20.432C76.5158 20.432 77.5961 19.652 78.4604 18.128C78.5901 19.652 79.6293 20.326 81.4278 20.326H82.1563V17.886H81.9382C81.0986 17.886 80.7714 17.568 80.7714 16.79ZM75.7873 17.78C74.5506 17.78 73.641 17.462 73.641 16.366C73.641 15.412 74.4045 14.988 75.7153 14.456L78.2505 13.432L78.2238 16.86C77.7875 17.39 76.915 17.78 75.7873 17.78Z" fill="black"/>
<path d="M11.4949 22.3919C17.3548 22.3919 22.1051 17.7768 22.1051 12.0839C22.1051 6.39092 17.3548 1.77588 11.4949 1.77588C5.6351 1.77588 0.884766 6.39092 0.884766 12.0839C0.884766 17.7768 5.6351 22.3919 11.4949 22.3919Z" fill="#FFC800"/>
<path d="M16.06 19.7639C12.4567 21.7839 8.54888 22.1459 6.05273 20.9359C9.24855 22.7859 13.3519 22.9459 16.8008 21.0119C20.2497 19.0759 22.1594 15.5439 22.1079 11.9299C21.9392 14.6339 19.6612 17.7419 16.06 19.7639Z" fill="black"/>
<path d="M12.8384 2.53198C13.5689 3.75998 11.8033 6.07997 8.8935 7.70997C5.98372 9.34197 3.03485 9.66797 2.30432 8.43797C2.27345 8.37997 2.24464 8.31597 2.22406 8.24997C2.03474 7.67797 2.2611 6.93797 2.80643 6.15797C2.89492 6.03597 2.98546 5.91597 3.07806 5.79797C3.9012 4.75598 4.94451 3.85198 6.18744 3.15598C7.43038 2.45798 8.75768 2.03398 10.0973 1.86198C10.2537 1.83998 10.406 1.82398 10.5542 1.81398C11.5213 1.74398 12.293 1.92398 12.7087 2.36798C12.7581 2.41998 12.8013 2.47598 12.8384 2.53198Z" fill="black"/>
<path d="M17.3508 3.85984C18.6267 6.00584 16.0523 9.76784 11.6033 12.2638C7.15428 14.7598 2.51181 15.0438 1.23802 12.8978C1.02606 12.5398 0.912879 12.1418 0.890243 11.7138C0.834682 13.1558 1.08985 14.6218 1.68457 16.0138C1.77305 16.2218 1.86977 16.4278 1.97266 16.6318C1.97678 16.6398 1.98295 16.6498 1.98707 16.6578C2.37188 17.3038 2.93984 17.8118 3.64774 18.1798C6.14389 19.4778 10.3645 19.0318 14.3114 16.8178C18.2563 14.6038 20.7648 11.2778 20.8574 8.52984C20.8841 7.75384 20.7174 7.02384 20.3367 6.37784C20.1927 6.16784 20.0425 5.96184 19.884 5.76584C18.9477 4.58984 17.783 3.65384 16.4886 2.98584C16.8487 3.21584 17.1409 3.50784 17.3508 3.85984C17.3508 3.85984 17.3529 3.86184 17.3529 3.86384L17.3508 3.85984Z" fill="black"/>
<path d="M11.4949 22.3919C17.3548 22.3919 22.1051 17.7768 22.1051 12.0839C22.1051 6.39092 17.3548 1.77588 11.4949 1.77588C5.6351 1.77588 0.884766 6.39092 0.884766 12.0839C0.884766 17.7768 5.6351 22.3919 11.4949 22.3919Z" fill="url(#paint0_radial_11597:14635)"/>
<defs>
<radialGradient id="paint0_radial_11597:14635" cx="0" cy="0" r="1" gradientUnits="userSpaceOnUse" gradientTransform="translate(11.4955 12.084) scale(10.6099 10.3118)">
<stop offset="0.5" stop-color="white" stop-opacity="0"/>
<stop offset="1" stop-color="white" stop-opacity="0.35"/>
</radialGradient>
</defs>
</svg>
