<?xml version="1.0" ?><svg data-name="Layer 3" id="Layer_3" viewBox="0 0 32 32" xmlns="http://www.w3.org/2000/svg"><defs><style>.cls-1{fill:none;stroke:#3c4044;stroke-linecap:round;stroke-linejoin:round;}</style></defs><title/><polygon class="cls-1" points="25.23 21.77 12.19 21.89 9.55 9.95 27.59 9.95 25.23 21.77"/><line class="cls-1" x1="21.23" x2="14.59" y1="24.53" y2="24.53"/><polyline class="cls-1" points="12.45 23.66 10.06 12.27 9.58 9.95 8.67 5.62 4.27 5.62"/><path class="cls-1" d="M25.83,26.29a2.64,2.64,0,1,1-5.28,0,2.63,2.63,0,0,1,4.6-1.76A2.64,2.64,0,0,1,25.83,26.29Z"/><path class="cls-1" d="M15.27,26.29a2.64,2.64,0,1,1-2.82-2.63h.18a2.61,2.61,0,0,1,2,.88A2.64,2.64,0,0,1,15.27,26.29Z"/><circle class="cls-1" cx="18.79" cy="16.18" r="3.52"/><line class="cls-1" x1="20.55" x2="17.03" y1="16.18" y2="16.18"/></svg>