<svg width="40" height="16" fill="none" xmlns="http://www.w3.org/2000/svg"><path fill-rule="evenodd" clip-rule="evenodd" d="M35.877 1.677h-7.67c.412 2.8 2.887 5.42 5.608 5.42h6.103c.083-.271.083-.633.083-.904 0-2.529-1.815-4.516-4.124-4.516Z" fill="url(#a)"/><path fill-rule="evenodd" clip-rule="evenodd" d="M28.865 7.548v6.775h3.712V10.71h3.299c1.814 0 3.381-1.355 3.876-3.162H28.865ZM15.67 1.677v12.646h3.299s.825 0 1.237-.903l2.887-6.323h.412v7.226h3.711V1.677h-3.299s-.824.09-1.237.903l-2.886 6.323h-.413V1.677H15.67ZM0 14.323V1.677h3.711s1.073 0 1.65 1.806c1.484 4.788 1.65 5.42 1.65 5.42s.33-1.174 1.649-5.42c.577-1.806 1.65-1.806 1.65-1.806h3.71v12.646h-3.71V7.548h-.413l-2.062 6.775h-1.65L4.125 7.548H3.71v6.775H0Z" fill="#4DB45F"/><defs><linearGradient id="a" x1="28.186" y1="4.387" x2="40.001" y2="4.387" gradientUnits="userSpaceOnUse"><stop stop-color="#00B4E6"/><stop offset="1" stop-color="#088CCB"/></linearGradient></defs></svg>