<svg width="41" height="14" fill="none" xmlns="http://www.w3.org/2000/svg"><path d="M38.17 1.035h-2.567c-.776 0-1.373.234-1.73.994l-4.896 10.936h3.463s.596-1.462.716-1.813h4.238c.12.41.418 1.755.418 1.755h3.105L38.17 1.034zm-4.059 7.661c.299-.702 1.313-3.333 1.313-3.333 0 .058.299-.702.418-1.111l.24 1.052s.656 2.866.775 3.45h-2.746v-.058zM29.215 9.047c0 2.456-2.268 4.093-5.79 4.093-1.493 0-2.926-.292-3.702-.643l.478-2.69.418.175c1.074.468 1.79.644 3.104.644.955 0 1.97-.351 1.97-1.17 0-.526-.418-.877-1.731-1.462-1.254-.585-2.925-1.52-2.925-3.216 0-2.34 2.328-3.919 5.611-3.919 1.254 0 2.328.234 2.985.527l-.478 2.573-.238-.234a6.53 6.53 0 00-2.508-.468c-1.253.059-1.85.585-1.85 1.053 0 .526.716.935 1.85 1.462 1.91.877 2.806 1.871 2.806 3.275z" fill="#3362AB"/><path d="M.083 1.152l.06-.234h5.133c.717 0 1.254.234 1.433.994l1.134 5.263C6.71 4.368 4.083 2.088.083 1.152z" fill="#F9B50B"/><path d="M15.068 1.035L9.874 12.906H6.352L3.367 2.965c2.15 1.345 3.94 3.45 4.597 4.912l.358 1.228L11.546.977h3.522v.058zM16.438.977h3.283l-2.09 11.93h-3.283l2.09-11.93z" fill="#3362AB"/></svg>